<?xml version="1.0" encoding="UTF-8" standalone="no"?>
<svg width="22px" height="22px" viewBox="0 0 22 22" version="1.1" xmlns="http://www.w3.org/2000/svg" xmlns:xlink="http://www.w3.org/1999/xlink" xmlns:sketch="http://www.bohemiancoding.com/sketch/ns">
    <!-- Generator: sketchtool 3.5.2 (25235) - http://www.bohemiancoding.com/sketch -->
    <title>Group</title>
    <desc>Created with sketchtool.</desc>
    <defs>
        <path id="path-1" d="M0,0.2496 L9.9504,0.2496 L9.9504,11.2 L0,11.2"></path>
    </defs>
    <g id="Page-1" stroke="none" stroke-width="1" fill="none" fill-rule="evenodd" sketch:type="MSPage">
        <g id="Login" sketch:type="MSArtboardGroup" transform="translate(-547.000000, -454.000000)">
            <g id="Password" sketch:type="MSLayerGroup" transform="translate(533.000000, 437.000000)">
                <g id="Group" transform="translate(15.000000, 18.000000)">
                    <g id="Page-1" transform="translate(5.000000, 4.000000)">
                        <g id="Group-3">
                            <mask id="mask-2" sketch:name="Clip 2" fill="white">
                                <use xlink:href="#path-1"></use>
                            </mask>
                            <g id="Clip-2"></g>
                            <path d="M6.89216,1.90792 C6.39376,1.40952 5.70616,1.09992 4.95016,1.09992 C4.19456,1.09992 3.50696,1.40952 3.00856,1.90792 C2.51016,2.40632 2.20056,3.09392 2.20056,3.84992 L2.20056,4.98232 L2.20056,5.36592 L1.81656,5.40432 C1.54536,5.43152 1.30216,5.56152 1.12736,5.75472 C0.95536,5.94472 0.85056,6.19752 0.85056,6.47472 L0.85056,9.27472 C0.85056,9.56992 0.97136,9.83872 1.16656,10.03352 C1.36136,10.22832 1.63016,10.34952 1.92496,10.34952 L8.02536,10.34952 C8.32056,10.34952 8.58936,10.22832 8.78416,10.03352 C8.97896,9.83872 9.10016,9.56992 9.10016,9.27472 L9.10016,6.47472 C9.10016,6.19072 8.99016,5.93232 8.81096,5.74072 C8.63016,5.54752 8.37776,5.42032 8.09696,5.40152 L7.70016,5.37512 L7.70016,4.97832 L7.70016,3.84992 C7.70016,3.09392 7.39056,2.40632 6.89216,1.90792 M4.95016,0.24952 C5.94056,0.24952 6.84096,0.65472 7.49336,1.30672 C8.14576,1.95912 8.55056,2.85952 8.55056,3.84992 L8.55056,4.62392 C8.89056,4.72152 9.19296,4.91032 9.42896,5.16272 C9.75176,5.50832 9.95056,5.97032 9.95056,6.47472 L9.95056,9.27472 C9.95056,9.80472 9.73376,10.28592 9.38536,10.63472 C9.03656,10.98352 8.55496,11.19992 8.02536,11.19992 L1.92496,11.19992 C1.39536,11.19992 0.91376,10.98352 0.56536,10.63472 C0.21656,10.28592 0.00016,9.80472 0.00016,9.27472 L0.00016,6.47472 C0.00016,5.98152 0.18936,5.52912 0.49936,5.18672 C0.72656,4.93512 1.01936,4.74352 1.35016,4.63952 L1.35016,3.84992 C1.35016,2.85952 1.75496,1.95912 2.40736,1.30672 C3.05976,0.65432 3.95976,0.24952 4.95016,0.24952" id="Fill-1" fill="#00479F" sketch:type="MSShapeGroup" mask="url(#mask-2)"></path>
                        </g>
                        <path d="M5.47516,7.85728 L5.47516,9.17928 C5.47516,9.45408 5.24996,9.67888 4.97516,9.67888 L4.97516,9.67888 C4.70036,9.67888 4.47516,9.45408 4.47516,9.17928 L4.47516,7.85728 C4.13716,7.67768 3.90676,7.32208 3.90676,6.91248 C3.90676,6.32248 4.38516,5.84408 4.97516,5.84408 C5.56556,5.84408 6.04396,6.32248 6.04396,6.91248 C6.04396,7.32208 5.81316,7.67768 5.47516,7.85728" id="Fill-4" fill="#00479F" sketch:type="MSShapeGroup"></path>
                    </g>
                    <circle id="Oval-2-Copy" stroke="#00479F" stroke-width="0.75" sketch:type="MSShapeGroup" cx="10" cy="10" r="10"></circle>
                </g>
            </g>
        </g>
    </g>
</svg>