<?xml version="1.0" encoding="UTF-8" standalone="no"?>
<svg width="22px" height="22px" viewBox="0 0 22 22" version="1.1" xmlns="http://www.w3.org/2000/svg" xmlns:xlink="http://www.w3.org/1999/xlink" xmlns:sketch="http://www.bohemiancoding.com/sketch/ns">
    <!-- Generator: sketchtool 3.5.2 (25235) - http://www.bohemiancoding.com/sketch -->
    <title>Group 2</title>
    <desc>Created with sketchtool.</desc>
    <defs>
        <path id="path-1" d="M0,0.225483871 L9.89096774,0.225483871 L9.89096774,9.67741935 L0,9.67741935"></path>
    </defs>
    <g id="Page-1" stroke="none" stroke-width="1" fill="none" fill-rule="evenodd" sketch:type="MSPage">
        <g id="Login" sketch:type="MSArtboardGroup" transform="translate(-547.000000, -379.000000)">
            <g id="Email" sketch:type="MSLayerGroup" transform="translate(533.000000, 362.000000)">
                <g id="Group-2" transform="translate(15.000000, 18.000000)">
                    <g id="Page-1" transform="translate(5.000000, 5.000000)">
                        <mask id="mask-2" sketch:name="Clip 2" fill="white">
                            <use xlink:href="#path-1"></use>
                        </mask>
                        <g id="Clip-2"></g>
                        <path d="M3.42429032,5.78277419 C3.34590323,5.65083871 3.26751613,5.52309677 3.19235484,5.40083871 C2.93977419,4.98954839 2.72041935,4.63309677 2.5846129,4.226 C2.07041935,2.68309677 2.40396774,1.59019355 3.09687097,0.935032258 C3.60783871,0.452129032 4.313,0.218903226 5.01654839,0.225677419 C5.71783871,0.232129032 6.42332258,0.477290323 6.93783871,0.949548387 C7.64041935,1.5943871 7.98945161,2.64341935 7.49848387,4.06116129 C7.34977419,4.49051613 7.09074194,4.89245161 6.78945161,5.35890323 C6.71880645,5.46825806 6.64590323,5.58148387 6.57267742,5.69729032 C7.71687097,6.01632258 8.84396774,6.78793548 9.42945161,7.52922581 C9.65009677,7.80858065 9.80170968,8.09180645 9.86106452,8.35793548 C9.933,8.68051613 9.87751613,8.97632258 9.66332258,9.21729032 C9.41267742,9.49987097 8.94009677,9.67567742 8.18848387,9.676 L8.18848387,9.67729032 L6.23106452,9.67729032 L5.87848387,9.67729032 C5.39558065,9.67729032 5.47170968,8.99148387 5.88848387,8.99148387 L6.22106452,8.99148387 L8.18848387,8.99148387 L8.18848387,8.99309677 C8.72235484,8.99277419 9.02558065,8.90406452 9.15170968,8.76212903 C9.20654839,8.70019355 9.21783871,8.61116129 9.19396774,8.50535484 C9.15783871,8.34277419 9.05203226,8.15277419 8.89364516,7.95245161 C8.31170968,7.21567742 7.11332258,6.44406452 5.97912903,6.26470968 L5.48267742,6.18632258 L5.73654839,5.7543871 C5.90719355,5.4643871 6.06558065,5.21858065 6.21364516,4.98954839 C6.493,4.55632258 6.73364516,4.18374194 6.853,3.83890323 C7.23816129,2.726 6.99106452,1.92729032 6.4746129,1.45341935 C6.08751613,1.09793548 5.54977419,0.913741935 5.0113871,0.908580645 C4.47525806,0.903741935 3.94364516,1.076 3.56558065,1.43341935 C3.05235484,1.91858065 2.81816129,2.76729032 3.233,4.01148387 C3.33977419,4.33148387 3.54235484,4.66148387 3.77622581,5.04180645 C3.91880645,5.27374194 4.07267742,5.52406452 4.23590323,5.82567742 L4.44654839,6.21406452 L4.01622581,6.31987097 C2.99041935,6.57212903 1.67816129,7.3476129 1.02751613,8.06632258 C0.853,8.25890323 0.734612903,8.43858065 0.697193548,8.58729032 C0.678483871,8.66212903 0.690741935,8.72567742 0.743967742,8.77083871 C0.910741935,8.91180645 1.29170968,8.99696774 1.95751613,8.99309677 L1.95880645,8.99148387 L3.70074194,8.99148387 L4.05364516,8.99148387 C4.38880645,8.99148387 4.4746129,9.67729032 4.06396774,9.67729032 L3.71106452,9.67729032 L1.95880645,9.67729032 L1.95880645,9.676 C1.11525806,9.68083871 0.587516129,9.53470968 0.302032258,9.29309677 C0.0223548387,9.05664516 -0.051516129,8.75632258 0.0326774194,8.42116129 C0.0981612903,8.16019355 0.272354839,7.88277419 0.521064516,7.60825806 C1.16170968,6.90083871 2.36816129,6.146 3.42429032,5.78277419" id="Fill-1" fill="#00479F" sketch:type="MSShapeGroup" mask="url(#mask-2)"></path>
                    </g>
                    <circle id="Oval-2" stroke="#00479F" stroke-width="0.75" sketch:type="MSShapeGroup" cx="10" cy="10" r="10"></circle>
                </g>
            </g>
        </g>
    </g>
</svg>