<?xml version="1.0" encoding="UTF-8" standalone="no"?>
<svg width="400px" height="22px" viewBox="0 0 400 22" version="1.1" xmlns="http://www.w3.org/2000/svg" xmlns:xlink="http://www.w3.org/1999/xlink" xmlns:sketch="http://www.bohemiancoding.com/sketch/ns">
    <!-- Generator: sketchtool 3.5.2 (25235) - http://www.bohemiancoding.com/sketch -->
    <title>Logo Thumbnail</title>
    <desc>Created with sketchtool.</desc>
    <defs>
        <path id="path-1" d="M0,0.213120567 L23.3109929,0.213120567 L23.3109929,20.5673759 L0,20.5673759 L0,0.213120567 Z"></path>
        <path id="path-3" d="M0,0.213120567 L23.3109929,0.213120567 L23.3109929,20.5673759 L0,20.5673759"></path>
        <path id="path-5" d="M0,0.213120567 L23.3109929,0.213120567 L23.3109929,20.5673759 L0,20.5673759 L0,0.213120567 Z"></path>
        <path id="path-7" d="M0,0.191489362 L19.1166981,0.191489362 L19.1166981,21.2765957 L0,21.2765957"></path>
        <path id="path-9" d="M0,0.154533257 L20.4128426,0.154533257 L20.4128426,20.5673759 L0,20.5673759"></path>
        <path id="path-11" d="M0,0.154533257 L20.4128426,0.154533257 L20.4128426,20.5673759 L0,20.5673759"></path>
        <path id="path-13" d="M0,0.154533257 L20.4128426,0.154533257 L20.4128426,20.5673759 L0,20.5673759"></path>
        <path id="path-15" d="M0.179837893,10.6752786 C0.179837893,16.4544073 4.86474164,21.139311 10.6438703,21.139311 L10.6438703,21.139311 C16.422999,21.139311 21.1079027,16.4544073 21.1079027,10.6752786 L21.1079027,10.6752786 C21.1079027,4.89614995 16.422999,0.211246201 10.6438703,0.211246201 L10.6438703,0.211246201 C4.86474164,0.211246201 0.179837893,4.89614995 0.179837893,10.6752786 L0.179837893,10.6752786 Z"></path>
    </defs>
    <g id="Page-1" stroke="none" stroke-width="1" fill="none" fill-rule="evenodd" sketch:type="MSPage">
        <g id="Login2" sketch:type="MSArtboardGroup" transform="translate(-483.000000, -670.000000)">
            <g id="Logo-Thumbnail" sketch:type="MSLayerGroup" transform="translate(483.000000, 670.000000)">
                <g id="Page-1" transform="translate(336.879433, 0.009584)" sketch:type="MSShapeGroup">
                    <path d="M19.6427334,14.0917654 C19.9170577,12.8949665 20.3322963,12.3674411 20.4128982,11.0166647 C17.3522503,12.5781177 13.8894269,13.4641825 10.2175944,13.4641825 C6.54576193,13.4641825 3.25109067,13.9091604 0.190164846,12.3477075 C0.555652674,13.6195495 0.56954955,13.7521257 0.999796818,14.8071765 C3.86005175,15.9150355 6.96628139,16.5289994 10.2175944,16.5289994 C13.4689074,16.5289994 16.7824784,15.1996243 19.6427334,14.0917654" id="Fill-1" fill="#EBEBEB"></path>
                    <path d="M20.3010562,9.902719 C20.1479126,8.80014089 20.0181158,7.73730784 19.7676941,6.77981311 C16.9888748,8.46717175 13.7064328,9.37797297 10.2174832,9.37797297 C6.72881158,9.37797297 3.39856431,8.59391125 0.619467127,6.90655262 C0.257314549,7.89684397 -0.010617213,9.59504217 0.0068928503,10.7726634 C3.04113667,12.4161079 6.52480544,12.4427899 10.2174832,12.4427899 C13.9104389,12.4427899 17.2668123,11.5458856 20.3010562,9.902719" id="Fill-3" fill="#EBEBEB"></path>
                    <path d="M19.338364,5.87343109 C18.7986094,4.98180755 18.2521842,4.0115277 17.537051,3.27693885 C15.3955425,4.55545141 12.8929931,5.29198582 10.2175666,5.29198582 C7.54214012,5.29198582 5.08294901,4.50792409 2.94144048,3.22941154 C2.26855377,3.97650757 1.60456105,4.95345793 1.07175484,5.84841671 C3.72022139,7.48324516 6.87675772,8.35652482 10.2175666,8.35652482 C13.5586534,8.35652482 16.6898975,7.50853747 19.338364,5.87343109" id="Fill-5" fill="#EBEBEB"></path>
                    <path d="M0.190220433,12.3478187 C0.813078398,15.5382634 2.94319149,18.3787847 6.15059038,19.7706958 C9.35798927,21.1626069 12.8875177,20.7787752 15.6432682,19.0544508 C12.8622254,18.8123673 10.0722887,18.1319762 7.37073606,16.9593579 C4.6689055,15.7867395 2.26641365,14.2136132 0.190220433,12.3478187" id="Fill-7" fill="#E14C2D"></path>
                    <path d="M16.918779,18.1126318 C17.8896147,17.2704811 18.7128656,16.2318286 19.3243282,15.024746 C15.8951351,15.23848 12.3656067,14.6728771 8.9975599,13.2109258 C5.62923519,11.7492524 2.80566801,9.55771516 0.619411539,6.90674717 C0.155533832,8.17775541 -0.0406900518,9.48850872 0.00711520031,10.772858 C2.18975848,12.9277075 4.79486678,14.7279088 7.77741422,16.0222638 C10.7599617,17.3166187 13.853962,17.9900613 16.918779,18.1126318" id="Fill-9" fill="#EE9221"></path>
                    <g id="Group-13" transform="translate(0.833813, 3.057313)" fill="#B8C833">
                        <path d="M18.9546435,10.9141892 C19.3423663,9.87803814 19.5480401,8.81492716 19.5908424,7.75987637 C16.3698246,8.20124113 12.9906603,7.79406268 9.79048783,6.40520893 C6.59031532,5.01635518 3.98492908,2.82620759 2.10746118,0.172182289 C1.36620184,0.923725321 0.730002875,1.80034023 0.238053479,2.79090953 C2.36705482,5.50635902 5.18283975,7.74625743 8.57034215,9.21654687 C11.9581225,10.6868363 15.5171123,11.2135279 18.9546435,10.9141892" id="Fill-11"></path>
                    </g>
                    <path d="M20.4138988,9.78465114 C20.350807,8.75127947 20.1312363,7.73847518 19.7676941,6.7798687 C17.2943282,7.10005271 14.7053402,6.77931282 12.251152,5.71397834 C9.79696377,4.64892179 7.794424,2.97684972 6.33886525,0.951519072 C5.39054246,1.34090953 4.50086448,1.87232605 3.70290588,2.53187177 C5.48142802,5.0861175 7.96618938,7.19538528 11.0310063,8.52531627 C14.0958233,9.85552521 17.3335173,10.230185 20.4138988,9.78465114" id="Fill-14" fill="#6BC9CF"></path>
                    <path d="M19.338364,5.80033353 C18.3011012,3.74081656 16.5653814,2.0184378 14.2846262,1.02870232 C12.0041489,0.0386889017 9.56052233,-0.0527525398 7.3478618,0.596231551 C8.68279567,2.36780525 10.4777161,3.83086832 12.657858,4.77696761 C14.8379998,5.72334483 17.132374,6.03519072 19.338364,5.80033353" id="Fill-16" fill="#E14C2D"></path>
                </g>
                <g id="Page-1" transform="translate(184.397163, 0.000000)" sketch:type="MSShapeGroup">
                    <path d="M10.0933839,0.104198732 L-7.46944319e-05,17.5864305 L17.2067836,17.5864305 L15.7166297,15.0054889 L4.47038705,15.0054889 L13.0736917,0.104198732 L10.0933839,0.104198732 Z" id="Fill-1" fill="#ED5E2F"></path>
                    <path d="M11.5835378,7.84717293 L17.2067836,17.5865799 L-7.46944319e-05,17.5865799 L1.49007922,20.1675215 L21.6772454,20.1675215 L13.0736917,5.26623133 L11.5835378,7.84717293 Z" id="Fill-2" fill="#6BC9CF"></path>
                    <path d="M13.0741399,0.104198732 L4.47083522,15.0054889 L7.45114305,15.0054889 L13.0741399,5.26608194 L21.6776935,20.1673721 L23.1678474,17.5864305 L13.0741399,0.104198732 Z" id="Fill-3" fill="#EE9221"></path>
                </g>
                <g id="Page-1" transform="translate(136.170213, 0.000000)">
                    <g id="Group-3">
                        <mask id="mask-2" sketch:name="Clip 2" fill="white">
                            <use xlink:href="#path-1"></use>
                        </mask>
                        <g id="Clip-2"></g>
                        <path d="M12.5073759,7.76329787 L12.5073759,18.2714539 L21.6077305,13.0171986 L21.6077305,2.50939716 L12.5073759,7.76329787 Z M11.698156,20.5671986 L11.698156,20.5671986 C11.2048936,20.5671986 10.8038298,20.1661348 10.8038298,19.6728723 L10.8038298,7.2962766 C10.8038298,6.97748227 10.9751064,6.68067376 11.2509929,6.5214539 L21.9697872,0.333156028 C22.1052482,0.254787234 22.2598582,0.213297872 22.4165957,0.213297872 C22.9098582,0.213297872 23.3112766,0.614361702 23.3112766,1.10762411 L23.3112766,13.4845745 C23.3112766,13.8030142 23.14,14.0998227 22.8641135,14.2590426 L12.1453191,20.4473404 C12.0095035,20.5260638 11.8548936,20.5671986 11.698156,20.5671986 L11.698156,20.5671986 Z" id="Fill-1" fill="#B8C833" sketch:type="MSShapeGroup" mask="url(#mask-2)"></path>
                    </g>
                    <g id="Group-6">
                        <mask id="mask-4" sketch:name="Clip 5" fill="white">
                            <use xlink:href="#path-3"></use>
                        </mask>
                        <g id="Clip-5"></g>
                        <path d="M11.6129433,0.213297872 C11.4558511,0.213297872 11.3012411,0.254787234 11.1657801,0.333156028 L0.447340426,6.5214539 C0.171453901,6.68067376 0.000177304965,6.97748227 0.000177304965,7.2962766 L0.000177304965,19.6728723 C0.000177304965,20.1661348 0.401241135,20.5671986 0.894148936,20.5675532 L0.894503546,20.5675532 C1.05088652,20.5675532 1.20549645,20.5260638 1.34166667,20.4473404 L4.84556738,18.4242908 L4.84556738,16.4572695 L1.7037234,18.2714539 L1.7037234,7.76329787 L10.8037234,2.50939716 L10.8037234,3.08031915 L12.5072695,2.09663121 L12.5072695,1.10762411 C12.5072695,0.614716312 12.1062057,0.213297872 11.6129433,0.213297872" id="Fill-4" fill="#E14C2D" sketch:type="MSShapeGroup" mask="url(#mask-4)"></path>
                    </g>
                    <g id="Group-9">
                        <mask id="mask-6" sketch:name="Clip 8" fill="white">
                            <use xlink:href="#path-5"></use>
                        </mask>
                        <g id="Clip-8"></g>
                        <path d="M7.10546099,18.2714184 L7.10546099,7.76326241 L16.2058156,2.5093617 L16.2058156,3.07992908 L17.9093617,2.09624113 L17.9093617,1.10758865 C17.9093617,0.614680851 17.5079433,0.213262411 17.0146809,0.213262411 C16.8579433,0.213262411 16.7029787,0.254751773 16.5678723,0.333120567 L5.84907801,6.52141844 C5.57319149,6.6806383 5.40191489,6.97744681 5.40191489,7.29624113 L5.40191489,19.6728369 C5.40191489,20.1660993 5.80297872,20.5671631 6.29624113,20.5675177 L6.29624113,20.5675177 C6.45297872,20.5675177 6.60758865,20.5260284 6.74340426,20.447305 L10.249078,18.4235461 L10.249078,16.4565248 L7.10546099,18.2714184 Z" id="Fill-7" fill="#6BC9CF" sketch:type="MSShapeGroup" mask="url(#mask-6)"></path>
                    </g>
                </g>
                <g id="Page-1" transform="translate(46.099291, 0.000000)" sketch:type="MSShapeGroup">
                    <path d="M0,21.2765957 L21.1921341,21.2765957 L21.1921341,0.0844616377 L0,0.0844616377 L0,21.2765957 Z" id="Fill-1" fill="#EE9221"></path>
                    <path d="M0,0.0845261122 L0,21.2766602 L21.1921341,10.6805932 L21.1921341,0.0845261122 L0,0.0845261122 Z" id="Fill-2" fill="#B8C833"></path>
                    <path d="M0,0.0845261122 L0,21.2766602 L21.1921341,0.0845261122 L0,0.0845261122 Z" id="Fill-3" fill="#6BC9CF"></path>
                    <path d="M0,0.0845261122 L0,21.2766602 L10.5960671,0.0845261122 L0,0.0845261122 Z" id="Fill-4" fill="#E14C2D"></path>
                </g>
                <g id="Page-1" transform="translate(232.624113, 0.000000)" sketch:type="MSShapeGroup">
                    <path d="M23.996481,2.99612338 C19.9316471,2.99612338 16.6249295,6.35132209 16.6249295,10.475275 C16.6249295,14.5992279 19.9316471,17.9544266 23.996481,17.9544266 C28.0613148,17.9544266 31.368415,14.5992279 31.368415,10.475275 C31.368415,6.35132209 28.0613148,2.99612338 23.996481,2.99612338 M23.996481,20.5668714 C18.5114224,20.5668714 14.0491705,16.0397203 14.0491705,10.475275 C14.0491705,4.91082965 18.5114224,0.383678576 23.996481,0.383678576 C29.4815396,0.383678576 33.9437915,4.91082965 33.9437915,10.475275 C33.9437915,16.0397203 29.4815396,20.5668714 23.996481,20.5668714" id="Fill-1" fill="#6BC9CF"></path>
                    <path d="M9.94742529,2.99612338 C5.88259144,2.99612338 2.57549127,6.35132209 2.57549127,10.475275 C2.57549127,14.5992279 5.88259144,17.9548147 9.94742529,17.9548147 C14.0122591,17.9548147 17.3193593,14.5992279 17.3193593,10.475275 C17.3193593,6.35132209 14.0122591,2.99612338 9.94742529,2.99612338 M9.94742529,20.5672595 C4.46236672,20.5672595 0.000114750179,16.0401084 0.000114750179,10.475275 C0.000114750179,4.91082965 4.46236672,0.383678576 9.94742529,0.383678576 C15.4324839,0.383678576 19.8947358,4.91082965 19.8947358,10.475275 C19.8947358,16.0401084 15.4324839,20.5672595 9.94742529,20.5672595" id="Fill-3" fill="#F26225"></path>
                    <path d="M29.1909921,10.4753526 C29.1909921,13.4405473 26.8217834,15.8442138 23.8990963,15.8442138 C20.9764093,15.8442138 18.6072006,13.4405473 18.6072006,10.4753526 C18.6072006,7.5101579 20.9764093,5.10649137 23.8990963,5.10649137 C26.8217834,5.10649137 29.1909921,7.5101579 29.1909921,10.4753526" id="Fill-5" fill="#F26225"></path>
                    <path d="M15.3370882,10.4753526 C15.3370882,13.4405473 12.9678795,15.8442138 10.0451924,15.8442138 C7.12250538,15.8442138 4.75329668,13.4405473 4.75329668,10.4753526 C4.75329668,7.5101579 7.12250538,5.10649137 10.0451924,5.10649137 C12.9678795,5.10649137 15.3370882,7.5101579 15.3370882,10.4753526" id="Fill-7" fill="#6BC9CF"></path>
                </g>
                <g id="Page-1" transform="translate(92.198582, 0.000000)">
                    <g id="Group-3">
                        <mask id="mask-8" sketch:name="Clip 2" fill="white">
                            <use xlink:href="#path-7"></use>
                        </mask>
                        <g id="Clip-2"></g>
                        <path d="M9.55825209,1.37295508 C9.51437921,1.37295508 9.47050633,1.38406619 9.43123889,1.40605201 L9.4309965,1.40628842 L1.33923781,5.96255319 C1.26070294,6.00676123 1.21198222,6.08903073 1.21198222,6.17744681 L1.21198222,15.2904492 C1.21198222,15.3788652 1.26070294,15.4613712 1.33899542,15.5053428 L9.4309965,20.061844 C9.50953138,20.106052 9.6069728,20.1062884 9.68550768,20.061844 L17.7772664,15.5053428 C17.8558012,15.4611348 17.9047643,15.3788652 17.9047643,15.2904492 L17.9047643,6.17744681 C17.9047643,6.08903073 17.8558012,6.00699764 17.7775088,5.96255319 L9.68550768,1.40628842 C9.64624024,1.38406619 9.60212497,1.37295508 9.55825209,1.37295508 M9.55825209,21.2765012 C9.30471048,21.2765012 9.05092647,21.2129078 8.82477511,21.0852482 L0.73325882,16.5289835 C0.2809561,16.2743735 2.42391597e-05,15.7999054 2.42391597e-05,15.2904492 L2.42391597e-05,6.17744681 C2.42391597e-05,5.66799054 0.2809561,5.19352246 0.73325882,4.93891253 L8.82477511,0.382884161 C9.27732023,0.127328605 9.83942634,0.127801418 10.2917291,0.382647754 L18.3832454,4.93891253 C18.8355481,5.19328605 19.1167223,5.66799054 19.1167223,6.17744681 L19.1167223,15.2904492 C19.1167223,15.7999054 18.8355481,16.2746099 18.383003,16.5289835 L10.2914867,21.0854846 C10.0655777,21.2129078 9.8117937,21.2765012 9.55825209,21.2765012" id="Fill-1" fill="#B8C833" sketch:type="MSShapeGroup" mask="url(#mask-8)"></path>
                    </g>
                    <path d="M9.55825209,19.4565721 L17.3036332,15.0953428 L17.3036332,6.37264775 L9.55825209,10.7338771 L9.55825209,19.4565721 Z" id="Fill-4" fill="#EE9221" sketch:type="MSShapeGroup"></path>
                    <path d="M1.81299219,6.37264775 L9.55837328,2.01141844 L17.303512,6.37264775 L9.55837328,10.7338771 L1.81299219,6.37264775 Z" id="Fill-6" fill="#E14C2D" sketch:type="MSShapeGroup"></path>
                    <path d="M1.81299219,6.37264775 L1.81299219,15.0953428 L9.55837328,19.4565721 L9.55837328,10.7338771 L1.81299219,6.37264775 Z" id="Fill-8" fill="#6BC9CF" sketch:type="MSShapeGroup"></path>
                </g>
                <g id="Page-1" transform="translate(291.489362, 0.000000)">
                    <g id="Group-3">
                        <mask id="mask-10" sketch:name="Clip 2" fill="white">
                            <use xlink:href="#path-9"></use>
                        </mask>
                        <g id="Clip-2"></g>
                        <path d="M3.4021497,10.360899 C3.4021497,11.3003278 2.64060092,12.0618766 1.70117213,12.0618766 C0.761465402,12.0618766 -8.33812536e-05,11.3003278 -8.33812536e-05,10.360899 C-8.33812536e-05,9.42147019 0.761465402,8.65992141 1.70117213,8.65992141 C2.64060092,8.65992141 3.4021497,9.42147019 3.4021497,10.360899" id="Fill-1" fill="#EE9221" sketch:type="MSShapeGroup" mask="url(#mask-10)"></path>
                    </g>
                    <g id="Group-6">
                        <mask id="mask-12" sketch:name="Clip 5" fill="white">
                            <use xlink:href="#path-11"></use>
                        </mask>
                        <g id="Clip-5"></g>
                        <path d="M20.4129538,10.360899 C20.4129538,11.3003278 19.651405,12.0618766 18.7119762,12.0618766 C17.7722695,12.0618766 17.0107207,11.3003278 17.0107207,10.360899 C17.0107207,9.42147019 17.7722695,8.65992141 18.7119762,8.65992141 C19.651405,8.65992141 20.4129538,9.42147019 20.4129538,10.360899" id="Fill-4" fill="#EE9221" sketch:type="MSShapeGroup" mask="url(#mask-12)"></path>
                    </g>
                    <path d="M17.5778244,4.69061242 C17.5778244,5.63004121 16.8162756,6.39158999 15.8768468,6.39158999 C14.9371401,6.39158999 14.1755913,5.63004121 14.1755913,4.69061242 C14.1755913,3.75118363 14.9371401,2.98963485 15.8768468,2.98963485 C16.8162756,2.98963485 17.5778244,3.75118363 17.5778244,4.69061242" id="Fill-7" fill="#B8C833" sketch:type="MSShapeGroup"></path>
                    <path d="M6.23730688,4.69061242 C6.23730688,5.63004121 5.4757581,6.39158999 4.53632931,6.39158999 C3.59662258,6.39158999 2.8350738,5.63004121 2.8350738,4.69061242 C2.8350738,3.75118363 3.59662258,2.98963485 4.53632931,2.98963485 C5.4757581,2.98963485 6.23730688,3.75118363 6.23730688,4.69061242" id="Fill-9" fill="#E14C2D" sketch:type="MSShapeGroup"></path>
                    <path d="M17.5778244,16.0311578 C17.5778244,16.9705865 16.8162756,17.7321353 15.8768468,17.7321353 C14.9371401,17.7321353 14.1755913,16.9705865 14.1755913,16.0311578 C14.1755913,15.091729 14.9371401,14.3301802 15.8768468,14.3301802 C16.8162756,14.3301802 17.5778244,15.091729 17.5778244,16.0311578" id="Fill-11" fill="#E14C2D" sketch:type="MSShapeGroup"></path>
                    <path d="M6.23730688,16.0311578 C6.23730688,16.9705865 5.4757581,17.7321353 4.53632931,17.7321353 C3.59662258,17.7321353 2.8350738,16.9705865 2.8350738,16.0311578 C2.8350738,15.091729 3.59662258,14.3301802 4.53632931,14.3301802 C5.4757581,14.3301802 6.23730688,15.091729 6.23730688,16.0311578" id="Fill-13" fill="#B8C833" sketch:type="MSShapeGroup"></path>
                    <path d="M11.9075657,18.8662871 C11.9075657,19.8057159 11.1460169,20.5672647 10.2065881,20.5672647 C9.26688135,20.5672647 8.50533257,19.8057159 8.50533257,18.8662871 C8.50533257,17.9268583 9.26688135,17.1653096 10.2065881,17.1653096 C11.1460169,17.1653096 11.9075657,17.9268583 11.9075657,18.8662871" id="Fill-15" fill="#6BC9CF" sketch:type="MSShapeGroup"></path>
                    <g id="Group-19">
                        <mask id="mask-14" sketch:name="Clip 18" fill="white">
                            <use xlink:href="#path-13"></use>
                        </mask>
                        <g id="Clip-18"></g>
                        <path d="M11.9075657,1.85548304 C11.9075657,2.79491183 11.1460169,3.55646061 10.2065881,3.55646061 C9.26688135,3.55646061 8.50533257,2.79491183 8.50533257,1.85548304 C8.50533257,0.916054246 9.26688135,0.154505463 10.2065881,0.154505463 C11.1460169,0.154505463 11.9075657,0.916054246 11.9075657,1.85548304" id="Fill-17" fill="#6BC9CF" sketch:type="MSShapeGroup" mask="url(#mask-14)"></path>
                    </g>
                    <path d="M9.54818191,9.11059709 L5.73988212,5.3022973 L5.13842534,5.90375407 L8.93727525,9.70260399 C9.07513226,9.4485691 9.28886621,9.24150565 9.54818191,9.11059709" id="Fill-20" fill="#E14C2D" sketch:type="MSShapeGroup"></path>
                    <path d="M8.76692735,10.3750738 C8.76692735,10.2269331 8.78999617,10.0840732 8.83224267,9.9498294 L2.83518497,9.9498294 L2.83518497,10.8003182 L8.83224267,10.8003182 C8.78999617,10.6660744 8.76692735,10.5232145 8.76692735,10.3750738" id="Fill-22" fill="#EE9221" sketch:type="MSShapeGroup"></path>
                    <path d="M8.92765862,11.0288106 L5.12908664,14.8273826 L5.73054342,15.4288394 L9.52939333,11.6299895 C9.27230113,11.4954677 9.06190243,11.285069 8.92765862,11.0288106" id="Fill-24" fill="#B8C833" sketch:type="MSShapeGroup"></path>
                    <path d="M10.1922743,11.7926385 C10.0494144,11.7926385 9.91127947,11.7715152 9.78120472,11.732604 L9.78120472,17.7983122 L10.6316935,17.7983122 L10.6316935,11.72371 C10.4932806,11.76818 10.3456958,11.7926385 10.1922743,11.7926385" id="Fill-26" fill="#6BC9CF" sketch:type="MSShapeGroup"></path>
                    <path d="M11.4601141,11.022557 C11.3272599,11.2796492 11.117695,11.4908817 10.8614366,11.6267932 L14.7492266,15.5143052 L15.3506833,14.9131263 L11.4601141,11.022557 Z" id="Fill-28" fill="#E14C2D" sketch:type="MSShapeGroup"></path>
                    <path d="M11.5522781,9.94980161 C11.5948026,10.0840454 11.6175934,10.2269053 11.6175934,10.375046 C11.6175934,10.5231867 11.5948026,10.6660466 11.5522781,10.8002904 L17.5779634,10.8002904 L17.5779634,9.94980161 L11.5522781,9.94980161 Z" id="Fill-30" fill="#EE9221" sketch:type="MSShapeGroup"></path>
                    <path d="M11.4504696,9.70885758 L15.4355377,5.72378953 L14.8340809,5.12233276 L10.8426203,9.11379337 C11.1011022,9.24581369 11.3137244,9.45398888 11.4504696,9.70885758" id="Fill-32" fill="#B8C833" sketch:type="MSShapeGroup"></path>
                    <path d="M10.1922743,8.9575091 C10.3456958,8.9575091 10.4932806,8.98196761 10.6316935,9.02643761 L10.6316935,2.98963485 L9.78120472,2.98963485 L9.78120472,9.01754361 C9.91127947,8.97863236 10.0494144,8.9575091 10.1922743,8.9575091" id="Fill-34" fill="#6BC9CF" sketch:type="MSShapeGroup"></path>
                    <path d="M6.68259057,1.28846272 C6.36991087,1.28846272 6.11559804,1.54277554 6.11559804,1.85545524 C6.11559804,2.16813494 6.36991087,2.42244777 6.68259057,2.42244777 C6.99527027,2.42244777 7.24958309,2.16813494 7.24958309,1.85545524 C7.24958309,1.54277554 6.99527027,1.28846272 6.68259057,1.28846272 M6.68259057,2.70594403 C6.21370999,2.70594403 5.83182385,2.32461376 5.83182385,1.85545524 C5.83182385,1.38657466 6.21370999,1.00496646 6.68259057,1.00496646 C7.15147115,1.00496646 7.53307936,1.38657466 7.53307936,1.85545524 C7.53307936,2.32461376 7.15147115,2.70594403 6.68259057,2.70594403" id="Fill-36" fill="#F8E877" sketch:type="MSShapeGroup"></path>
                    <path d="M6.68259057,18.2991001 C6.36991087,18.2991001 6.11559804,18.5536908 6.11559804,18.8663705 C6.11559804,19.1790502 6.36991087,19.433363 6.68259057,19.433363 C6.99527027,19.433363 7.24958309,19.1790502 7.24958309,18.8663705 C7.24958309,18.5536908 6.99527027,18.2991001 6.68259057,18.2991001 M6.68259057,19.7168593 C6.21370999,19.7168593 5.83182385,19.335529 5.83182385,18.8663705 C5.83182385,18.3974899 6.21370999,18.0156038 6.68259057,18.0156038 C7.15147115,18.0156038 7.53307936,18.3974899 7.53307936,18.8663705 C7.53307936,19.335529 7.15147115,19.7168593 6.68259057,19.7168593" id="Fill-38" fill="#D15E47" sketch:type="MSShapeGroup"></path>
                    <path d="M1.70103316,13.3174037 C1.38835346,13.3174037 1.13404064,13.5717165 1.13404064,13.8843962 C1.13404064,14.1970759 1.38835346,14.4513887 1.70103316,14.4513887 C2.01371286,14.4513887 2.26802569,14.1970759 2.26802569,13.8843962 C2.26802569,13.5717165 2.01371286,13.3174037 1.70103316,13.3174037 M1.70103316,14.734885 C1.23215258,14.734885 0.850544374,14.3535547 0.850544374,13.8843962 C0.850544374,13.4155156 1.23215258,13.0339074 1.70103316,13.0339074 C2.16991374,13.0339074 2.55179988,13.4155156 2.55179988,13.8843962 C2.55179988,14.3535547 2.16991374,14.734885 1.70103316,14.734885" id="Fill-40" fill="#D13B4D" sketch:type="MSShapeGroup"></path>
                    <path d="M1.70103316,6.26854706 C1.38835346,6.26854706 1.13404064,6.52285988 1.13404064,6.83553958 C1.13404064,7.14821928 1.38835346,7.40253211 1.70103316,7.40253211 C2.01371286,7.40253211 2.26802569,7.14821928 2.26802569,6.83553958 C2.26802569,6.52285988 2.01371286,6.26854706 1.70103316,6.26854706 M1.70103316,7.68602837 C1.23215258,7.68602837 0.850544374,7.3046981 0.850544374,6.83553958 C0.850544374,6.366659 1.23215258,5.9850508 1.70103316,5.9850508 C2.16991374,5.9850508 2.55179988,6.366659 2.55179988,6.83553958 C2.55179988,7.3046981 2.16991374,7.68602837 1.70103316,7.68602837" id="Fill-42" fill="#CC1721" sketch:type="MSShapeGroup"></path>
                    <path d="M18.7118095,6.26854706 C18.3991298,6.26854706 18.1448169,6.52285988 18.1448169,6.83553958 C18.1448169,7.14821928 18.3991298,7.40253211 18.7118095,7.40253211 C19.0244892,7.40253211 19.2790799,7.14821928 19.2790799,6.83553958 C19.2790799,6.52285988 19.0244892,6.26854706 18.7118095,6.26854706 M18.7118095,7.68602837 C18.2429289,7.68602837 17.8613207,7.3046981 17.8613207,6.83553958 C17.8613207,6.366659 18.2429289,5.9850508 18.7118095,5.9850508 C19.1806901,5.9850508 19.5625762,6.366659 19.5625762,6.83553958 C19.5625762,7.3046981 19.1806901,7.68602837 18.7118095,7.68602837" id="Fill-44" fill="#EFCF6A" sketch:type="MSShapeGroup"></path>
                    <path d="M18.7118095,13.3174037 C18.3991298,13.3174037 18.1448169,13.5717165 18.1448169,13.8843962 C18.1448169,14.1970759 18.3991298,14.4513887 18.7118095,14.4513887 C19.0244892,14.4513887 19.2790799,14.1970759 19.2790799,13.8843962 C19.2790799,13.5717165 19.0244892,13.3174037 18.7118095,13.3174037 M18.7118095,14.734885 C18.2429289,14.734885 17.8613207,14.3535547 17.8613207,13.8843962 C17.8613207,13.4155156 18.2429289,13.0339074 18.7118095,13.0339074 C19.1806901,13.0339074 19.5625762,13.4155156 19.5625762,13.8843962 C19.5625762,14.3535547 19.1806901,14.734885 18.7118095,14.734885" id="Fill-46" fill="#FCB400" sketch:type="MSShapeGroup"></path>
                    <path d="M13.7287512,18.2991001 C13.4160715,18.2991001 13.1617587,18.5536908 13.1617587,18.8663705 C13.1617587,19.1790502 13.4160715,19.433363 13.7287512,19.433363 C14.0414309,19.433363 14.2957437,19.1790502 14.2957437,18.8663705 C14.2957437,18.5536908 14.0414309,18.2991001 13.7287512,18.2991001 M13.7287512,19.7168593 C13.2598706,19.7168593 12.8782624,19.335529 12.8782624,18.8663705 C12.8782624,18.3974899 13.2598706,18.0156038 13.7287512,18.0156038 C14.1976318,18.0156038 14.57924,18.3974899 14.57924,18.8663705 C14.57924,19.335529 14.1976318,19.7168593 13.7287512,19.7168593" id="Fill-48" fill="#F26438" sketch:type="MSShapeGroup"></path>
                    <path d="M13.7287512,1.28846272 C13.4160715,1.28846272 13.1617587,1.54277554 13.1617587,1.85545524 C13.1617587,2.16813494 13.4160715,2.42244777 13.7287512,2.42244777 C14.0414309,2.42244777 14.2957437,2.16813494 14.2957437,1.85545524 C14.2957437,1.54277554 14.0414309,1.28846272 13.7287512,1.28846272 M13.7287512,2.70594403 C13.2598706,2.70594403 12.8782624,2.32461376 12.8782624,1.85545524 C12.8782624,1.38657466 13.2598706,1.00496646 13.7287512,1.00496646 C14.1976318,1.00496646 14.57924,1.38657466 14.57924,1.85545524 C14.57924,2.32461376 14.1976318,2.70594403 13.7287512,2.70594403" id="Fill-50" fill="#F8CD48" sketch:type="MSShapeGroup"></path>
                </g>
                <g id="Page-1">
                    <mask id="mask-16" sketch:name="Clip 2" fill="white">
                        <use xlink:href="#path-15"></use>
                    </mask>
                    <g id="Clip-2"></g>
                    <path d="M4.58991895,5.65425532 L2.16843972,5.65425532 L2.16843972,-0.788500507 L4.58991895,-0.788500507 L4.58991895,5.65425532 Z" id="Fill-1" fill="#F8851F" sketch:type="MSShapeGroup" mask="url(#mask-16)"></path>
                    <path d="M2.16818642,5.65425532 L-0.253292806,5.65425532 L-0.253292806,-0.788500507 L2.16818642,-0.788500507 L2.16818642,5.65425532 Z" id="Fill-3" fill="#E14C2D" sketch:type="MSShapeGroup" mask="url(#mask-16)"></path>
                    <path d="M2.16818642,10.3196555 L-0.253292806,10.3196555 L-0.253292806,5.65425532 L2.16818642,5.65425532 L2.16818642,10.3196555 Z" id="Fill-4" fill="#F98B38" sketch:type="MSShapeGroup" mask="url(#mask-16)"></path>
                    <path d="M4.58991895,10.3196555 L2.16843972,10.3196555 L2.16843972,5.65425532 L4.58991895,5.65425532 L4.58991895,10.3196555 Z" id="Fill-5" fill="#F26225" sketch:type="MSShapeGroup" mask="url(#mask-16)"></path>
                    <path d="M7.01139818,10.3196555 L4.58991895,10.3196555 L4.58991895,5.65425532 L7.01139818,5.65425532 L7.01139818,10.3196555 Z" id="Fill-6" fill="#E14C2D" sketch:type="MSShapeGroup" mask="url(#mask-16)"></path>
                    <path d="M9.4331307,10.3196555 L7.01165147,10.3196555 L7.01165147,5.65425532 L9.4331307,5.65425532 L9.4331307,10.3196555 Z" id="Fill-7" fill="#6DCBD4" sketch:type="MSShapeGroup" mask="url(#mask-16)"></path>
                    <path d="M11.8546099,10.3196555 L9.4331307,10.3196555 L9.4331307,5.65425532 L11.8546099,5.65425532 L11.8546099,10.3196555 Z" id="Fill-8" fill="#137ABC" sketch:type="MSShapeGroup" mask="url(#mask-16)"></path>
                    <path d="M14.2763425,10.3196555 L11.8548632,10.3196555 L11.8548632,5.65425532 L14.2763425,5.65425532 L14.2763425,10.3196555 Z" id="Fill-9" fill="#80A23E" sketch:type="MSShapeGroup" mask="url(#mask-16)"></path>
                    <path d="M16.6978217,10.3196555 L14.2763425,10.3196555 L14.2763425,5.65425532 L16.6978217,5.65425532 L16.6978217,10.3196555 Z" id="Fill-10" fill="#8EC641" sketch:type="MSShapeGroup" mask="url(#mask-16)"></path>
                    <path d="M19.1195542,10.3196555 L16.698075,10.3196555 L16.698075,5.65425532 L19.1195542,5.65425532 L19.1195542,10.3196555 Z" id="Fill-11" fill="#7EAE41" sketch:type="MSShapeGroup" mask="url(#mask-16)"></path>
                    <path d="M21.5410334,10.3196555 L19.1195542,10.3196555 L19.1195542,5.65425532 L21.5410334,5.65425532 L21.5410334,10.3196555 Z" id="Fill-12" fill="#80A23E" sketch:type="MSShapeGroup" mask="url(#mask-16)"></path>
                    <path d="M2.16818642,14.985309 L-0.253292806,14.985309 L-0.253292806,10.3199088 L2.16818642,10.3199088 L2.16818642,14.985309 Z" id="Fill-13" fill="#506D33" sketch:type="MSShapeGroup" mask="url(#mask-16)"></path>
                    <path d="M4.58991895,14.985309 L2.16843972,14.985309 L2.16843972,10.3199088 L4.58991895,10.3199088 L4.58991895,14.985309 Z" id="Fill-14" fill="#649641" sketch:type="MSShapeGroup" mask="url(#mask-16)"></path>
                    <path d="M7.01139818,14.985309 L4.58991895,14.985309 L4.58991895,10.3199088 L7.01139818,10.3199088 L7.01139818,14.985309 Z" id="Fill-15" fill="#6DCBD3" sketch:type="MSShapeGroup" mask="url(#mask-16)"></path>
                    <path d="M9.4331307,14.985309 L7.01165147,14.985309 L7.01165147,10.3199088 L9.4331307,10.3199088 L9.4331307,14.985309 Z" id="Fill-16" fill="#137ABC" sketch:type="MSShapeGroup" mask="url(#mask-16)"></path>
                    <path d="M11.8546099,14.985309 L9.4331307,14.985309 L9.4331307,10.3199088 L11.8546099,10.3199088 L11.8546099,14.985309 Z" id="Fill-17" fill="#6ECBD3" sketch:type="MSShapeGroup" mask="url(#mask-16)"></path>
                    <path d="M14.2763425,14.985309 L11.8548632,14.985309 L11.8548632,10.3199088 L14.2763425,10.3199088 L14.2763425,14.985309 Z" id="Fill-18" fill="#8EC641" sketch:type="MSShapeGroup" mask="url(#mask-16)"></path>
                    <path d="M16.6978217,14.985309 L14.2763425,14.985309 L14.2763425,10.3199088 L16.6978217,10.3199088 L16.6978217,14.985309 Z" id="Fill-19" fill="#F8851F" sketch:type="MSShapeGroup" mask="url(#mask-16)"></path>
                    <path d="M19.1195542,14.985309 L16.698075,14.985309 L16.698075,10.3199088 L19.1195542,10.3199088 L19.1195542,14.985309 Z" id="Fill-20" fill="#F26225" sketch:type="MSShapeGroup" mask="url(#mask-16)"></path>
                    <path d="M21.5410334,14.985309 L19.1195542,14.985309 L19.1195542,10.3199088 L21.5410334,10.3199088 L21.5410334,14.985309 Z" id="Fill-21" fill="#C3BD45" sketch:type="MSShapeGroup" mask="url(#mask-16)"></path>
                    <path d="M2.16818642,19.6507092 L-0.253292806,19.6507092 L-0.253292806,14.985309 L2.16818642,14.985309 L2.16818642,19.6507092 Z" id="Fill-22" fill="#8EC641" sketch:type="MSShapeGroup" mask="url(#mask-16)"></path>
                    <path d="M4.58991895,19.6507092 L2.16843972,19.6507092 L2.16843972,14.985309 L4.58991895,14.985309 L4.58991895,19.6507092 Z" id="Fill-23" fill="#80A23E" sketch:type="MSShapeGroup" mask="url(#mask-16)"></path>
                    <path d="M7.01139818,19.6507092 L4.58991895,19.6507092 L4.58991895,14.985309 L7.01139818,14.985309 L7.01139818,19.6507092 Z" id="Fill-24" fill="#137ABC" sketch:type="MSShapeGroup" mask="url(#mask-16)"></path>
                    <path d="M9.4331307,19.6507092 L7.01165147,19.6507092 L7.01165147,14.985309 L9.4331307,14.985309 L9.4331307,19.6507092 Z" id="Fill-25" fill="#1783BF" sketch:type="MSShapeGroup" mask="url(#mask-16)"></path>
                    <path d="M11.8546099,19.6507092 L9.4331307,19.6507092 L9.4331307,14.985309 L11.8546099,14.985309 L11.8546099,19.6507092 Z" id="Fill-26" fill="#09A9C5" sketch:type="MSShapeGroup" mask="url(#mask-16)"></path>
                    <path d="M14.2763425,19.6507092 L11.8548632,19.6507092 L11.8548632,14.985309 L14.2763425,14.985309 L14.2763425,19.6507092 Z" id="Fill-27" fill="#C3BD45" sketch:type="MSShapeGroup" mask="url(#mask-16)"></path>
                    <path d="M16.6978217,19.6507092 L14.2763425,19.6507092 L14.2763425,14.985309 L16.6978217,14.985309 L16.6978217,19.6507092 Z" id="Fill-28" fill="#F26225" sketch:type="MSShapeGroup" mask="url(#mask-16)"></path>
                    <path d="M19.1195542,19.6507092 L16.698075,19.6507092 L16.698075,14.985309 L19.1195542,14.985309 L19.1195542,19.6507092 Z" id="Fill-29" fill="#F8851F" sketch:type="MSShapeGroup" mask="url(#mask-16)"></path>
                    <path d="M21.5410334,19.6507092 L19.1195542,19.6507092 L19.1195542,14.985309 L21.5410334,14.985309 L21.5410334,19.6507092 Z" id="Fill-30" fill="#F98B38" sketch:type="MSShapeGroup" mask="url(#mask-16)"></path>
                    <path d="M2.16818642,24.3161094 L-0.253292806,24.3161094 L-0.253292806,19.6507092 L2.16818642,19.6507092 L2.16818642,24.3161094 Z" id="Fill-31" fill="#F26225" sketch:type="MSShapeGroup" mask="url(#mask-16)"></path>
                    <path d="M4.58991895,24.3161094 L2.16843972,24.3161094 L2.16843972,19.6507092 L4.58991895,19.6507092 L4.58991895,24.3161094 Z" id="Fill-32" fill="#F8851F" sketch:type="MSShapeGroup" mask="url(#mask-16)"></path>
                    <path d="M7.01139818,24.3161094 L4.58991895,24.3161094 L4.58991895,19.6507092 L7.01139818,19.6507092 L7.01139818,24.3161094 Z" id="Fill-33" fill="#09A9C5" sketch:type="MSShapeGroup" mask="url(#mask-16)"></path>
                    <path d="M9.4331307,24.3161094 L7.01165147,24.3161094 L7.01165147,19.6507092 L9.4331307,19.6507092 L9.4331307,24.3161094 Z" id="Fill-34" fill="#6ECBD3" sketch:type="MSShapeGroup" mask="url(#mask-16)"></path>
                    <path d="M11.8546099,24.3161094 L9.4331307,24.3161094 L9.4331307,19.6507092 L11.8546099,19.6507092 L11.8546099,24.3161094 Z" id="Fill-35" fill="#137ABC" sketch:type="MSShapeGroup" mask="url(#mask-16)"></path>
                    <path d="M14.2763425,24.3161094 L11.8548632,24.3161094 L11.8548632,19.6507092 L14.2763425,19.6507092 L14.2763425,24.3161094 Z" id="Fill-36" fill="#F98B38" sketch:type="MSShapeGroup" mask="url(#mask-16)"></path>
                    <path d="M16.6978217,24.3161094 L14.2763425,24.3161094 L14.2763425,19.6507092 L16.6978217,19.6507092 L16.6978217,24.3161094 Z" id="Fill-37" fill="#F8851F" sketch:type="MSShapeGroup" mask="url(#mask-16)"></path>
                    <path d="M19.1195542,24.3161094 L16.698075,24.3161094 L16.698075,19.6507092 L19.1195542,19.6507092 L19.1195542,24.3161094 Z" id="Fill-38" fill="#F26225" sketch:type="MSShapeGroup" mask="url(#mask-16)"></path>
                    <path d="M21.5410334,24.3161094 L19.1195542,24.3161094 L19.1195542,19.6507092 L21.5410334,19.6507092 L21.5410334,24.3161094 Z" id="Fill-39" fill="#E14C2D" sketch:type="MSShapeGroup" mask="url(#mask-16)"></path>
                    <path d="M7.01139818,5.65425532 L4.58991895,5.65425532 L4.58991895,-0.788500507 L7.01139818,-0.788500507 L7.01139818,5.65425532 Z" id="Fill-40" fill="#F98B38" sketch:type="MSShapeGroup" mask="url(#mask-16)"></path>
                    <path d="M9.4331307,5.65425532 L7.01165147,5.65425532 L7.01165147,-0.788500507 L9.4331307,-0.788500507 L9.4331307,5.65425532 Z" id="Fill-41" fill="#F26225" sketch:type="MSShapeGroup" mask="url(#mask-16)"></path>
                    <path d="M11.8546099,5.65425532 L9.4331307,5.65425532 L9.4331307,-0.788500507 L11.8546099,-0.788500507 L11.8546099,5.65425532 Z" id="Fill-42" fill="#6DCBD4" sketch:type="MSShapeGroup" mask="url(#mask-16)"></path>
                    <path d="M14.2763425,5.65425532 L11.8548632,5.65425532 L11.8548632,-0.788500507 L14.2763425,-0.788500507 L14.2763425,5.65425532 Z" id="Fill-43" fill="#87C442" sketch:type="MSShapeGroup" mask="url(#mask-16)"></path>
                    <path d="M16.6978217,5.65425532 L14.2763425,5.65425532 L14.2763425,-0.788500507 L16.6978217,-0.788500507 L16.6978217,5.65425532 Z" id="Fill-44" fill="#649640" sketch:type="MSShapeGroup" mask="url(#mask-16)"></path>
                    <path d="M19.1195542,5.65425532 L16.698075,5.65425532 L16.698075,-0.788500507 L19.1195542,-0.788500507 L19.1195542,5.65425532 Z" id="Fill-45" fill="#5B863A" sketch:type="MSShapeGroup" mask="url(#mask-16)"></path>
                    <path d="M21.5410334,5.65425532 L19.1195542,5.65425532 L19.1195542,-0.788500507 L21.5410334,-0.788500507 L21.5410334,5.65425532 Z" id="Fill-46" fill="#566F2A" sketch:type="MSShapeGroup" mask="url(#mask-16)"></path>
                </g>
                <g id="Page-1" transform="translate(382.269504, 0.000000)" sketch:type="MSShapeGroup">
                    <path d="M11.3475177,12.2610891 L17.7304965,12.2610891 C17.7304965,10.0205554 16.8375887,7.99206635 15.393617,6.52362063 L10.8801418,11.1135954 C11.1687943,11.4071403 11.3475177,11.8128381 11.3475177,12.2610891" id="Fill-1" fill="#0F64AA"></path>
                    <path d="M11.3475177,12.2610891 C11.3475177,12.7093401 11.1687943,13.1150379 10.8801418,13.4085828 L14.7666667,17.3609809 C16.05,16.0558961 16.8439716,14.2527948 16.8439716,12.2610891 L11.3475177,12.2610891 Z" id="Fill-3" fill="#E52929"></path>
                    <path d="M8.15602837,12.2610891 L0,12.2610891 C0,14.9996394 1.09148936,17.4789037 2.85638298,19.2733502 L8.62340426,13.4085828 C8.33475177,13.1150379 8.15602837,12.7093401 8.15602837,12.2610891" id="Fill-5" fill="#0EB9C6"></path>
                    <path d="M9.75177305,13.8838803 L9.75177305,21.2765957 C12.2,21.2765957 14.4163121,20.2675802 16.0205674,18.6361342 L10.8801418,13.4085828 C10.5914894,13.7021277 10.1925532,13.8838803 9.75177305,13.8838803" id="Fill-7" fill="#0EB9C6"></path>
                    <path d="M8.62340426,13.4085828 L4.73687943,17.3609809 C6.02021277,18.6660656 7.79326241,19.4734944 9.75177305,19.4734944 L9.75177305,13.8838803 C9.31099291,13.8838803 8.91205674,13.7021277 8.62340426,13.4085828" id="Fill-9" fill="#FF8100"></path>
                    <path d="M8.62340426,11.1135954 L4.10992908,6.52362063 C2.66595745,7.99206635 1.77304965,10.0205554 1.77304965,12.2610891 L8.15602837,12.2610891 C8.15602837,11.8128381 8.33475177,11.4071403 8.62340426,11.1135954" id="Fill-11" fill="#0F64AA"></path>
                    <path d="M10.8801418,11.1135954 L17.2741135,4.61125135 C15.3489362,2.65344392 12.6893617,1.44248107 9.75177305,1.44248107 L9.75177305,10.6382979 C10.1925532,10.6382979 10.5914894,10.8200505 10.8801418,11.1135954" id="Fill-13" fill="#90C742"></path>
                    <path d="M9.75177305,10.6382979 L9.75177305,0 C6.42234043,0 3.40815603,1.37252074 1.22624113,3.59105662 L8.62340426,11.1135954 C8.91205674,10.8200505 9.31099291,10.6382979 9.75177305,10.6382979" id="Fill-15" fill="#FF8100"></path>
                </g>
            </g>
        </g>
    </g>
</svg>