<?xml version="1.0" encoding="UTF-8" standalone="no"?>
<svg width="60px" height="79px" viewBox="0 0 60 79" version="1.1" xmlns="http://www.w3.org/2000/svg" xmlns:xlink="http://www.w3.org/1999/xlink" xmlns:sketch="http://www.bohemiancoding.com/sketch/ns">
    <!-- Generator: sketchtool 3.5.2 (25235) - http://www.bohemiancoding.com/sketch -->
    <title>Group 2</title>
    <desc>Created with sketchtool.</desc>
    <defs>
        <path id="path-1" d="M0.507142857,29.8571429 C0.507142857,46.1542857 13.7185714,59.365 30.0157143,59.365 L30.0157143,59.365 C46.3128571,59.365 59.5242857,46.1542857 59.5242857,29.8571429 L59.5242857,29.8571429 C59.5242857,13.56 46.3128571,0.348571429 30.0157143,0.348571429 L30.0157143,0.348571429 C13.7185714,0.348571429 0.507142857,13.56 0.507142857,29.8571429 L0.507142857,29.8571429 Z"></path>
    </defs>
    <g id="Page-1" stroke="none" stroke-width="1" fill="none" fill-rule="evenodd" sketch:type="MSPage">
        <g id="Apps" sketch:type="MSArtboardGroup" transform="translate(-503.000000, -265.000000)">
            <g id="Group-2" sketch:type="MSLayerGroup" transform="translate(503.000000, 265.000000)">
                <g id="Page-1">
                    <g id="Group-47">
                        <mask id="mask-2" sketch:name="Clip 2" fill="white">
                            <use xlink:href="#path-1"></use>
                        </mask>
                        <g id="Clip-2"></g>
                        <path d="M12.9435714,15.6978571 L6.115,15.6978571 L6.115,-2.47071429 L12.9435714,-2.47071429 L12.9435714,15.6978571 Z" id="Fill-1" fill="#F8851F" sketch:type="MSShapeGroup" mask="url(#mask-2)"></path>
                        <path d="M6.11428571,15.6978571 L-0.714285714,15.6978571 L-0.714285714,-2.47071429 L6.11428571,-2.47071429 L6.11428571,15.6978571 Z" id="Fill-3" fill="#E14C2D" sketch:type="MSShapeGroup" mask="url(#mask-2)"></path>
                        <path d="M6.11428571,28.8542857 L-0.714285714,28.8542857 L-0.714285714,15.6978571 L6.11428571,15.6978571 L6.11428571,28.8542857 Z" id="Fill-4" fill="#F98B38" sketch:type="MSShapeGroup" mask="url(#mask-2)"></path>
                        <path d="M12.9435714,28.8542857 L6.115,28.8542857 L6.115,15.6978571 L12.9435714,15.6978571 L12.9435714,28.8542857 Z" id="Fill-5" fill="#F26225" sketch:type="MSShapeGroup" mask="url(#mask-2)"></path>
                        <path d="M19.7721429,28.8542857 L12.9435714,28.8542857 L12.9435714,15.6978571 L19.7721429,15.6978571 L19.7721429,28.8542857 Z" id="Fill-6" fill="#E14C2D" sketch:type="MSShapeGroup" mask="url(#mask-2)"></path>
                        <path d="M26.6014286,28.8542857 L19.7728571,28.8542857 L19.7728571,15.6978571 L26.6014286,15.6978571 L26.6014286,28.8542857 Z" id="Fill-7" fill="#6DCBD4" sketch:type="MSShapeGroup" mask="url(#mask-2)"></path>
                        <path d="M33.43,28.8542857 L26.6014286,28.8542857 L26.6014286,15.6978571 L33.43,15.6978571 L33.43,28.8542857 Z" id="Fill-8" fill="#137ABC" sketch:type="MSShapeGroup" mask="url(#mask-2)"></path>
                        <path d="M40.2592857,28.8542857 L33.4307143,28.8542857 L33.4307143,15.6978571 L40.2592857,15.6978571 L40.2592857,28.8542857 Z" id="Fill-9" fill="#80A23E" sketch:type="MSShapeGroup" mask="url(#mask-2)"></path>
                        <path d="M47.0878571,28.8542857 L40.2592857,28.8542857 L40.2592857,15.6978571 L47.0878571,15.6978571 L47.0878571,28.8542857 Z" id="Fill-10" fill="#8EC641" sketch:type="MSShapeGroup" mask="url(#mask-2)"></path>
                        <path d="M53.9171429,28.8542857 L47.0885714,28.8542857 L47.0885714,15.6978571 L53.9171429,15.6978571 L53.9171429,28.8542857 Z" id="Fill-11" fill="#7EAE41" sketch:type="MSShapeGroup" mask="url(#mask-2)"></path>
                        <path d="M60.7457143,28.8542857 L53.9171429,28.8542857 L53.9171429,15.6978571 L60.7457143,15.6978571 L60.7457143,28.8542857 Z" id="Fill-12" fill="#80A23E" sketch:type="MSShapeGroup" mask="url(#mask-2)"></path>
                        <path d="M6.11428571,42.0107143 L-0.714285714,42.0107143 L-0.714285714,28.8542857 L6.11428571,28.8542857 L6.11428571,42.0107143 Z" id="Fill-13" fill="#506D33" sketch:type="MSShapeGroup" mask="url(#mask-2)"></path>
                        <path d="M12.9435714,42.0107143 L6.115,42.0107143 L6.115,28.8542857 L12.9435714,28.8542857 L12.9435714,42.0107143 Z" id="Fill-14" fill="#649641" sketch:type="MSShapeGroup" mask="url(#mask-2)"></path>
                        <path d="M19.7721429,42.0107143 L12.9435714,42.0107143 L12.9435714,28.8542857 L19.7721429,28.8542857 L19.7721429,42.0107143 Z" id="Fill-15" fill="#6DCBD3" sketch:type="MSShapeGroup" mask="url(#mask-2)"></path>
                        <path d="M26.6014286,42.0107143 L19.7728571,42.0107143 L19.7728571,28.8542857 L26.6014286,28.8542857 L26.6014286,42.0107143 Z" id="Fill-16" fill="#137ABC" sketch:type="MSShapeGroup" mask="url(#mask-2)"></path>
                        <path d="M33.43,42.0107143 L26.6014286,42.0107143 L26.6014286,28.8542857 L33.43,28.8542857 L33.43,42.0107143 Z" id="Fill-17" fill="#6ECBD3" sketch:type="MSShapeGroup" mask="url(#mask-2)"></path>
                        <path d="M40.2592857,42.0107143 L33.4307143,42.0107143 L33.4307143,28.8542857 L40.2592857,28.8542857 L40.2592857,42.0107143 Z" id="Fill-18" fill="#8EC641" sketch:type="MSShapeGroup" mask="url(#mask-2)"></path>
                        <path d="M47.0878571,42.0107143 L40.2592857,42.0107143 L40.2592857,28.8542857 L47.0878571,28.8542857 L47.0878571,42.0107143 Z" id="Fill-19" fill="#F8851F" sketch:type="MSShapeGroup" mask="url(#mask-2)"></path>
                        <path d="M53.9171429,42.0107143 L47.0885714,42.0107143 L47.0885714,28.8542857 L53.9171429,28.8542857 L53.9171429,42.0107143 Z" id="Fill-20" fill="#F26225" sketch:type="MSShapeGroup" mask="url(#mask-2)"></path>
                        <path d="M60.7457143,42.0107143 L53.9171429,42.0107143 L53.9171429,28.8542857 L60.7457143,28.8542857 L60.7457143,42.0107143 Z" id="Fill-21" fill="#C3BD45" sketch:type="MSShapeGroup" mask="url(#mask-2)"></path>
                        <path d="M6.11428571,55.1678571 L-0.714285714,55.1678571 L-0.714285714,42.0114286 L6.11428571,42.0114286 L6.11428571,55.1678571 Z" id="Fill-22" fill="#8EC641" sketch:type="MSShapeGroup" mask="url(#mask-2)"></path>
                        <path d="M12.9435714,55.1678571 L6.115,55.1678571 L6.115,42.0114286 L12.9435714,42.0114286 L12.9435714,55.1678571 Z" id="Fill-23" fill="#80A23E" sketch:type="MSShapeGroup" mask="url(#mask-2)"></path>
                        <path d="M19.7721429,55.1678571 L12.9435714,55.1678571 L12.9435714,42.0114286 L19.7721429,42.0114286 L19.7721429,55.1678571 Z" id="Fill-24" fill="#137ABC" sketch:type="MSShapeGroup" mask="url(#mask-2)"></path>
                        <path d="M26.6014286,55.1678571 L19.7728571,55.1678571 L19.7728571,42.0114286 L26.6014286,42.0114286 L26.6014286,55.1678571 Z" id="Fill-25" fill="#1783BF" sketch:type="MSShapeGroup" mask="url(#mask-2)"></path>
                        <path d="M33.43,55.1678571 L26.6014286,55.1678571 L26.6014286,42.0114286 L33.43,42.0114286 L33.43,55.1678571 Z" id="Fill-26" fill="#09A9C5" sketch:type="MSShapeGroup" mask="url(#mask-2)"></path>
                        <path d="M40.2592857,55.1678571 L33.4307143,55.1678571 L33.4307143,42.0114286 L40.2592857,42.0114286 L40.2592857,55.1678571 Z" id="Fill-27" fill="#C3BD45" sketch:type="MSShapeGroup" mask="url(#mask-2)"></path>
                        <path d="M47.0878571,55.1678571 L40.2592857,55.1678571 L40.2592857,42.0114286 L47.0878571,42.0114286 L47.0878571,55.1678571 Z" id="Fill-28" fill="#F26225" sketch:type="MSShapeGroup" mask="url(#mask-2)"></path>
                        <path d="M53.9171429,55.1678571 L47.0885714,55.1678571 L47.0885714,42.0114286 L53.9171429,42.0114286 L53.9171429,55.1678571 Z" id="Fill-29" fill="#F8851F" sketch:type="MSShapeGroup" mask="url(#mask-2)"></path>
                        <path d="M60.7457143,55.1678571 L53.9171429,55.1678571 L53.9171429,42.0114286 L60.7457143,42.0114286 L60.7457143,55.1678571 Z" id="Fill-30" fill="#F98B38" sketch:type="MSShapeGroup" mask="url(#mask-2)"></path>
                        <path d="M6.11428571,68.3242857 L-0.714285714,68.3242857 L-0.714285714,55.1678571 L6.11428571,55.1678571 L6.11428571,68.3242857 Z" id="Fill-31" fill="#F26225" sketch:type="MSShapeGroup" mask="url(#mask-2)"></path>
                        <path d="M12.9435714,68.3242857 L6.115,68.3242857 L6.115,55.1678571 L12.9435714,55.1678571 L12.9435714,68.3242857 Z" id="Fill-32" fill="#F8851F" sketch:type="MSShapeGroup" mask="url(#mask-2)"></path>
                        <path d="M19.7721429,68.3242857 L12.9435714,68.3242857 L12.9435714,55.1678571 L19.7721429,55.1678571 L19.7721429,68.3242857 Z" id="Fill-33" fill="#09A9C5" sketch:type="MSShapeGroup" mask="url(#mask-2)"></path>
                        <path d="M26.6014286,68.3242857 L19.7728571,68.3242857 L19.7728571,55.1678571 L26.6014286,55.1678571 L26.6014286,68.3242857 Z" id="Fill-34" fill="#6ECBD3" sketch:type="MSShapeGroup" mask="url(#mask-2)"></path>
                        <path d="M33.43,68.3242857 L26.6014286,68.3242857 L26.6014286,55.1678571 L33.43,55.1678571 L33.43,68.3242857 Z" id="Fill-35" fill="#137ABC" sketch:type="MSShapeGroup" mask="url(#mask-2)"></path>
                        <path d="M40.2592857,68.3242857 L33.4307143,68.3242857 L33.4307143,55.1678571 L40.2592857,55.1678571 L40.2592857,68.3242857 Z" id="Fill-36" fill="#F98B38" sketch:type="MSShapeGroup" mask="url(#mask-2)"></path>
                        <path d="M47.0878571,68.3242857 L40.2592857,68.3242857 L40.2592857,55.1678571 L47.0878571,55.1678571 L47.0878571,68.3242857 Z" id="Fill-37" fill="#F8851F" sketch:type="MSShapeGroup" mask="url(#mask-2)"></path>
                        <path d="M53.9171429,68.3242857 L47.0885714,68.3242857 L47.0885714,55.1678571 L53.9171429,55.1678571 L53.9171429,68.3242857 Z" id="Fill-38" fill="#F26225" sketch:type="MSShapeGroup" mask="url(#mask-2)"></path>
                        <path d="M60.7457143,68.3242857 L53.9171429,68.3242857 L53.9171429,55.1678571 L60.7457143,55.1678571 L60.7457143,68.3242857 Z" id="Fill-39" fill="#E14C2D" sketch:type="MSShapeGroup" mask="url(#mask-2)"></path>
                        <path d="M19.7721429,15.6978571 L12.9435714,15.6978571 L12.9435714,-2.47071429 L19.7721429,-2.47071429 L19.7721429,15.6978571 Z" id="Fill-40" fill="#F98B38" sketch:type="MSShapeGroup" mask="url(#mask-2)"></path>
                        <path d="M26.6014286,15.6978571 L19.7728571,15.6978571 L19.7728571,-2.47071429 L26.6014286,-2.47071429 L26.6014286,15.6978571 Z" id="Fill-41" fill="#F26225" sketch:type="MSShapeGroup" mask="url(#mask-2)"></path>
                        <path d="M33.43,15.6978571 L26.6014286,15.6978571 L26.6014286,-2.47071429 L33.43,-2.47071429 L33.43,15.6978571 Z" id="Fill-42" fill="#6DCBD4" sketch:type="MSShapeGroup" mask="url(#mask-2)"></path>
                        <path d="M40.2592857,15.6978571 L33.4307143,15.6978571 L33.4307143,-2.47071429 L40.2592857,-2.47071429 L40.2592857,15.6978571 Z" id="Fill-43" fill="#87C442" sketch:type="MSShapeGroup" mask="url(#mask-2)"></path>
                        <path d="M47.0878571,15.6978571 L40.2592857,15.6978571 L40.2592857,-2.47071429 L47.0878571,-2.47071429 L47.0878571,15.6978571 Z" id="Fill-44" fill="#649640" sketch:type="MSShapeGroup" mask="url(#mask-2)"></path>
                        <path d="M53.9171429,15.6978571 L47.0885714,15.6978571 L47.0885714,-2.47071429 L53.9171429,-2.47071429 L53.9171429,15.6978571 Z" id="Fill-45" fill="#5B863A" sketch:type="MSShapeGroup" mask="url(#mask-2)"></path>
                        <path d="M60.7457143,15.6978571 L53.9171429,15.6978571 L53.9171429,-2.47071429 L60.7457143,-2.47071429 L60.7457143,15.6978571 Z" id="Fill-46" fill="#566F2A" sketch:type="MSShapeGroup" mask="url(#mask-2)"></path>
                    </g>
                </g>
                <text id="Interop-Copy" sketch:type="MSTextLayer" font-family="Helvetica Neue" font-size="12" font-weight="bold" sketch:alignment="middle" fill="#000000">
                    <tspan x="10.058" y="76">Interop</tspan>
                </text>
            </g>
        </g>
    </g>
</svg>