<?xml version="1.0" encoding="UTF-8" standalone="no"?>
<svg width="21px" height="21px" viewBox="0 0 21 21" version="1.1" xmlns="http://www.w3.org/2000/svg" xmlns:xlink="http://www.w3.org/1999/xlink" xmlns:sketch="http://www.bohemiancoding.com/sketch/ns">
    <!-- Generator: sketchtool 3.5.2 (25235) - http://www.bohemiancoding.com/sketch -->
    <title>Help</title>
    <desc>Created with sketchtool.</desc>
    <defs></defs>
    <g id="Page-1" stroke="none" stroke-width="1" fill="none" fill-rule="evenodd" sketch:type="MSPage">
        <g id="Apps" sketch:type="MSArtboardGroup" transform="translate(-1203.000000, -30.000000)">
            <g id="Help" sketch:type="MSLayerGroup" transform="translate(1204.000000, 31.000000)">
                <g id="Notifications-Copy" stroke="#000000" stroke-width="0.75" sketch:type="MSShapeGroup">
                    <circle id="Oval-2-Copy" cx="9.5" cy="9.5" r="9.5"></circle>
                </g>
                <path d="M9.38407937,14.0804301 C9.57761548,14.0785202 9.74313978,14.0358659 9.88383544,13.9505572 C10.0238945,13.8652485 10.1346684,13.7487449 10.2110643,13.6023195 C10.2880967,13.4552575 10.3282045,13.2871867 10.3282045,13.098107 C10.3262946,12.9001145 10.2880967,12.7256773 10.2091544,12.5747956 C10.1308486,12.4258237 10.0200747,12.3067735 9.87746912,12.2214648 C9.73677346,12.1342463 9.57315905,12.0922286 9.38407937,12.089682 C9.19881947,12.0922286 9.03711496,12.1342463 8.89514604,12.2214648 C8.75445038,12.3067735 8.64431305,12.4258237 8.5634608,12.5747956 C8.48260854,12.7256773 8.4418641,12.9001145 8.4399542,13.098107 C8.4399542,13.2789105 8.47815212,13.4425249 8.55263806,13.5908601 C8.62457746,13.7379221 8.73344153,13.8569723 8.87350055,13.9441909 C9.01419621,14.033956 9.18417694,14.0785202 9.38407937,14.0804301 L9.38407937,14.0804301 Z M10.0474498,10.494919 C10.0474498,10.2803741 10.0729151,10.0715588 10.1263922,9.87356626 C10.1792327,9.67621036 10.2600849,9.47821783 10.368949,9.28277182 C10.4790863,9.08477929 10.6172354,8.88105707 10.7872162,8.6703319 C10.943191,8.47870568 11.0915262,8.28707947 11.2360417,8.09608989 C11.3786472,7.90446368 11.5085201,7.70710778 11.6237505,7.50274892 C11.7383443,7.29839007 11.8300193,7.085755 11.8955924,6.8603873 C11.963712,6.63692949 11.9974535,6.39691925 12,6.14353974 C12,5.86724147 11.9528892,5.60112932 11.8573944,5.34647655 C11.7618997,5.09118714 11.6148377,4.86136301 11.4174818,4.65955069 C11.2194892,4.45710173 10.9661097,4.29794375 10.6598898,4.18080347 C10.3517599,4.0617533 9.98569655,4.0019099 9.56297294,4 C9.29686079,4 9.03966149,4.02546528 8.78819187,4.07448594 C8.53799552,4.1235066 8.30562486,4.18716979 8.09553632,4.26993194 C7.88481115,4.35269409 7.70591758,4.44436909 7.55949223,4.54877673 L7.90391011,5.62086491 C8.02105039,5.54001266 8.1528332,5.46743662 8.29925854,5.40568332 C8.44632052,5.34647655 8.60165871,5.29745589 8.76272659,5.26307777 C8.92443111,5.22933627 9.08422572,5.21214721 9.24338371,5.21214721 C9.51586218,5.21214721 9.74313978,5.26116787 9.92839967,5.35666266 C10.111113,5.45024755 10.2492622,5.58457689 10.3434837,5.75646752 C10.4345221,5.92708488 10.4816328,6.1288972 10.4816328,6.36063123 C10.4816328,6.56689997 10.4427983,6.7687123 10.3708589,6.96670483 C10.2982828,7.16215084 10.1919653,7.36650969 10.0563627,7.57468833 C9.92012346,7.78350361 9.75396252,8.00887131 9.56297294,8.24888155 C9.27139551,8.62576766 9.05685055,8.99756071 8.92252121,9.36744387 C8.78628198,9.73605376 8.71816236,10.0995706 8.72070889,10.4567211 C8.72070889,10.494919 8.72261878,10.5522159 8.72707521,10.6330682 C8.73344153,10.7120105 8.73789795,10.7928628 8.74426427,10.8756249 C8.74999396,10.9583871 8.75445038,11.0220503 8.7589068,11.069161 L10.0729151,11.069161 L10.0474498,10.494919 Z" id="Fill-4" fill="#000000" sketch:type="MSShapeGroup"></path>
            </g>
        </g>
    </g>
</svg>