<?xml version="1.0" encoding="UTF-8" standalone="no"?>
<svg width="50px" height="74px" viewBox="0 0 50 74" version="1.1" xmlns="http://www.w3.org/2000/svg" xmlns:xlink="http://www.w3.org/1999/xlink" xmlns:sketch="http://www.bohemiancoding.com/sketch/ns">
    <!-- Generator: sketchtool 3.5.2 (25235) - http://www.bohemiancoding.com/sketch -->
    <title>Page 1</title>
    <desc>Created with sketchtool.</desc>
    <defs>
        <path id="path-1" d="M0,0.944 L50,0.944 L50,74 L0,74"></path>
        <path id="path-3" d="M0,0.944 L50,0.944 L50,74 L0,74"></path>
        <path id="path-5" d="M0,0.944 L50,0.944 L50,74 L0,74"></path>
    </defs>
    <g id="Page-1" stroke="none" stroke-width="1" fill="none" fill-rule="evenodd" sketch:type="MSPage">
        <g id="Apps" sketch:type="MSArtboardGroup" transform="translate(-808.000000, -567.000000)">
            <g id="Page-1" sketch:type="MSLayerGroup" transform="translate(808.000000, 567.000000)">
                <path d="M32,34.9438 L50,34.9438 C50,28.7308 47.482,23.1058 43.41,19.0338 L30.682,31.7618 C31.496,32.5758 32,33.7008 32,34.9438" id="Fill-1" fill="#0F64AA" sketch:type="MSShapeGroup"></path>
                <path d="M32,34.9438 C32,36.1868 31.496,37.3118 30.682,38.1258 L41.642,49.0858 C45.261,45.4668 47.5,40.4668 47.5,34.9438 L32,34.9438 Z" id="Fill-3" fill="#E52929" sketch:type="MSShapeGroup"></path>
                <path d="M23,34.9438 L0,34.9438 C0,42.5378 3.078,49.4128 8.055,54.3888 L24.318,38.1258 C23.504,37.3118 23,36.1868 23,34.9438" id="Fill-5" fill="#0EB9C6" sketch:type="MSShapeGroup"></path>
                <path d="M27.5,39.4438 L27.5,59.9438 C34.404,59.9438 40.654,57.1458 45.178,52.6218 L30.682,38.1258 C29.868,38.9398 28.743,39.4438 27.5,39.4438" id="Fill-7" fill="#0EB9C6" sketch:type="MSShapeGroup"></path>
                <path d="M24.318,38.1259 L13.358,49.0859 C16.977,52.7049 21.977,54.9439 27.5,54.9439 L27.5,39.4439 C26.257,39.4439 25.132,38.9399 24.318,38.1259" id="Fill-9" fill="#FF8100" sketch:type="MSShapeGroup"></path>
                <path d="M24.318,31.7618 L11.59,19.0338 C7.518,23.1058 5,28.7308 5,34.9438 L23,34.9438 C23,33.7008 23.504,32.5758 24.318,31.7618" id="Fill-11" fill="#0F64AA" sketch:type="MSShapeGroup"></path>
                <path d="M30.682,31.7618 L48.713,13.7308 C43.284,8.3018 35.784,4.9438 27.5,4.9438 L27.5,30.4438 C28.743,30.4438 29.868,30.9478 30.682,31.7618" id="Fill-13" fill="#90C742" sketch:type="MSShapeGroup"></path>
                <g id="Group-17">
                    <mask id="mask-2" sketch:name="Clip 16" fill="white">
                        <use xlink:href="#path-1"></use>
                    </mask>
                    <g id="Clip-16"></g>
                    <path d="M27.5,30.4438 L27.5,0.9438 C18.111,0.9438 9.611,4.7498 3.458,10.9018 L24.318,31.7618 C25.132,30.9478 26.257,30.4438 27.5,30.4438" id="Fill-15" fill="#FF8100" sketch:type="MSShapeGroup" mask="url(#mask-2)"></path>
                </g>
                <path d="M18.1387,66.7637 L20.2967,66.7637 L17.9577,73.9027 L15.6877,73.9027 L13.3587,66.7637 L15.5267,66.7637 L16.4977,70.3817 C16.7007,71.1857 16.8107,71.7457 16.8297,72.0617 C16.8527,71.8337 16.8987,71.5487 16.9667,71.2067 C17.0347,70.8657 17.0957,70.5967 17.1477,70.4017 L18.1387,66.7637 Z" id="Fill-18" fill="#000000" sketch:type="MSShapeGroup"></path>
                <g id="Group-22">
                    <mask id="mask-4" sketch:name="Clip 21" fill="white">
                        <use xlink:href="#path-3"></use>
                    </mask>
                    <g id="Clip-21"></g>
                    <path d="M22.1357,70.3232 C22.1357,71.7032 22.6157,72.3932 23.5757,72.3932 C24.0647,72.3932 24.4267,72.2252 24.6627,71.8902 C24.8987,71.5552 25.0167,71.0332 25.0167,70.3232 C25.0167,69.6102 24.8977,69.0842 24.6567,68.7442 C24.4187,68.4032 24.0617,68.2332 23.5857,68.2332 C22.6187,68.2332 22.1357,68.9292 22.1357,70.3232 M27.0477,70.3232 C27.0477,71.5242 26.7527,72.4372 26.1637,73.0622 C25.5747,73.6872 24.7117,74.0002 23.5757,74.0002 C22.4557,74.0002 21.5977,73.6852 21.0007,73.0572 C20.4037,72.4292 20.1047,71.5142 20.1047,70.3132 C20.1047,69.1252 20.4017,68.2182 20.9947,67.5922 C21.5897,66.9652 22.4527,66.6512 23.5857,66.6512 C24.7217,66.6512 25.5827,66.9622 26.1687,67.5842 C26.7547,68.2062 27.0477,69.1192 27.0477,70.3232" id="Fill-20" fill="#000000" sketch:type="MSShapeGroup" mask="url(#mask-4)"></path>
                </g>
                <path d="M30.7471,73.9023 L29.2871,68.7603 L29.2431,68.7603 C29.3111,69.6363 29.3461,70.3163 29.3461,70.8013 L29.3461,73.9023 L27.6371,73.9023 L27.6371,66.7633 L30.2051,66.7633 L31.6941,71.8323 L31.7331,71.8323 L33.1931,66.7633 L35.7671,66.7633 L35.7671,73.9023 L33.9941,73.9023 L33.9941,70.7723 C33.9941,70.6093 33.9961,70.4283 34.0021,70.2303 C34.0061,70.0323 34.0281,69.5453 34.0671,68.7703 L34.0231,68.7703 L32.5831,73.9023 L30.7471,73.9023 Z" id="Fill-23" fill="#000000" sketch:type="MSShapeGroup"></path>
                <g id="Group-27">
                    <mask id="mask-6" sketch:name="Clip 26" fill="white">
                        <use xlink:href="#path-5"></use>
                    </mask>
                    <g id="Clip-26"></g>
                    <path d="M41.2734,71.7344 C41.2734,72.1764 41.1614,72.5704 40.9364,72.9144 C40.7114,73.2564 40.3874,73.5234 39.9644,73.7144 C39.5424,73.9044 39.0444,74.0004 38.4754,74.0004 C38.0004,74.0004 37.6014,73.9664 37.2794,73.9004 C36.9574,73.8334 36.6224,73.7164 36.2734,73.5504 L36.2734,71.8324 C36.6414,72.0204 37.0234,72.1684 37.4204,72.2734 C37.8184,72.3804 38.1824,72.4324 38.5144,72.4324 C38.8004,72.4324 39.0104,72.3824 39.1444,72.2834 C39.2784,72.1844 39.3444,72.0564 39.3444,71.9004 C39.3444,71.8024 39.3184,71.7164 39.2634,71.6444 C39.2104,71.5704 39.1244,71.4974 39.0054,71.4224 C38.8864,71.3464 38.5704,71.1944 38.0554,70.9634 C37.5894,70.7514 37.2414,70.5464 37.0074,70.3474 C36.7754,70.1494 36.6034,69.9214 36.4904,69.6644 C36.3784,69.4074 36.3224,69.1024 36.3224,68.7514 C36.3224,68.0934 36.5614,67.5814 37.0404,67.2134 C37.5184,66.8444 38.1754,66.6614 39.0124,66.6614 C39.7524,66.6614 40.5044,66.8324 41.2734,67.1734 L40.6824,68.6634 C40.0154,68.3574 39.4394,68.2044 38.9544,68.2044 C38.7034,68.2044 38.5214,68.2484 38.4074,68.3364 C38.2934,68.4234 38.2364,68.5334 38.2364,68.6634 C38.2364,68.8024 38.3084,68.9284 38.4534,69.0394 C38.5984,69.1494 38.9914,69.3514 39.6324,69.6444 C40.2484,69.9214 40.6754,70.2184 40.9144,70.5354 C41.1544,70.8534 41.2734,71.2534 41.2734,71.7344" id="Fill-25" fill="#000000" sketch:type="MSShapeGroup" mask="url(#mask-6)"></path>
                </g>
            </g>
        </g>
    </g>
</svg>